HIERARCHY
ROOT Hips
{
    OFFSET 0.000000 0.000000 0.000000
    CHANNELS 6 Xposition Yposition Zposition Zrotation Xrotation Yrotation
    JOINT Spine
    {
        OFFSET -0.000000 7.236184 0.000000
        CHANNELS 3 Zrotation Xrotation Yrotation
        JOINT Spine1
        {
            OFFSET -0.000000 20.420147 0.000000
            CHANNELS 3 Zrotation Xrotation Yrotation
            JOINT Neck
            {
                OFFSET -0.000000 20.336288 1.848754
                CHANNELS 3 Zrotation Xrotation Yrotation
                JOINT Head
                {
                    OFFSET -0.000000 12.354461 -1.764923
                    CHANNELS 3 Zrotation Xrotation Yrotation
                    End Site
                    {
                        OFFSET -0.000000 22.061537 0.000000
                    }
                }
            }
            JOINT LeftShoulder
            {
                OFFSET 3.573296 18.396038 -0.314103
                CHANNELS 3 Zrotation Xrotation Yrotation
                JOINT LeftArm
                {
                    OFFSET 10.880760 0.000000 0.000000
                    CHANNELS 3 Zrotation Xrotation Yrotation
                    JOINT LeftForeArm
                    {
                        OFFSET 27.185530 0.000000 0.000000
                        CHANNELS 3 Zrotation Xrotation Yrotation
                        JOINT LeftHand
                        {
                            OFFSET 27.825975 0.000000 0.000000
                            CHANNELS 3 Zrotation Xrotation Yrotation
                            End Site
                            {
                                OFFSET 13.236923 0.000000 0.000000
                            }
                        }
                    }
                }
            }
            JOINT RightShoulder
            {
                OFFSET -3.474926 18.396038 -0.314103
                CHANNELS 3 Zrotation Xrotation Yrotation
                JOINT RightArm
                {
                    OFFSET -10.880760 0.000000 0.000000
                    CHANNELS 3 Zrotation Xrotation Yrotation
                    JOINT RightForeArm
                    {
                        OFFSET -27.185530 0.000000 0.000000
                        CHANNELS 3 Zrotation Xrotation Yrotation
                        JOINT RightHand
                        {
                            OFFSET -27.825975 0.000000 0.000000
                            CHANNELS 3 Zrotation Xrotation Yrotation
                            End Site
                            {
                                OFFSET -13.236923 0.000000 0.000000
                            }
                        }
                    }
                }
            }
        }
    }
    JOINT LeftUpLeg
    {
        OFFSET 8.824615 0.000000 0.000000
        CHANNELS 3 Zrotation Xrotation Yrotation
        JOINT LeftLeg
        {
            OFFSET -0.000000 -35.111282 0.000000
            CHANNELS 3 Zrotation Xrotation Yrotation
            JOINT LeftFoot
            {
                OFFSET -0.000000 -42.324711 0.000000
                CHANNELS 3 Zrotation Xrotation Yrotation
                JOINT LeftToeBase
                {
                    OFFSET -0.000000 -5.735999 13.236923
                    CHANNELS 3 Zrotation Xrotation Yrotation
                    End Site
                    {
                        OFFSET -0.000000 0.000000 3.529846
                    }
                }
            }
        }
    }
    JOINT RightUpLeg
    {
        OFFSET -8.824615 0.000000 0.000000
        CHANNELS 3 Zrotation Xrotation Yrotation
        JOINT RightLeg
        {
            OFFSET -0.000000 -35.111282 0.000000
            CHANNELS 3 Zrotation Xrotation Yrotation
            JOINT RightFoot
            {
                OFFSET -0.000000 -42.324711 0.000000
                CHANNELS 3 Zrotation Xrotation Yrotation
                JOINT RightToeBase
                {
                    OFFSET -0.000000 -5.735999 13.236923
                    CHANNELS 3 Zrotation Xrotation Yrotation
                    End Site
                    {
                        OFFSET -0.000000 0.000000 3.529846
                    }
                }
            }
        }
    }
}
MOTION
Frames:    9
Frame Time:    0.008333
-10.454483    83.868584    98.921509    4.885897    -10.717728    173.477951    -0.446685    -7.036690    -1.884005    6.989198    -6.095693    -1.483942    2.314699    3.295104    -10.303495    11.949691    -10.290958    -8.264035    6.791890    8.773858    -0.537493    -50.270679    9.785957    -14.002161    3.159925    1.185238    -9.300159    23.494612    1.281164    -0.775307    6.226987    14.562922    -12.482896    55.493767    28.082945    17.773829    -4.804085    -15.289714    30.969751    -25.125191    -13.850360    -0.696979    13.992779    -18.123026    0.573819    1.234607    28.826166    9.064884    -10.873749    -9.936925    -18.005732    -0.473231    -4.468876    0.528971    -14.977341    -24.071203    -1.832795    10.095594    24.647089    -6.956795    20.328091    9.905726    -2.052086    -1.245177    -5.367692    1.357194    
-10.852139    84.027245    99.108253    4.908542    -10.881559    171.897522    -0.326296    -6.836458    -1.950833    6.964837    -6.079844    -1.560978    2.473764    3.390652    -10.230685    11.712950    -10.036464    -8.284553    6.778219    8.614136    -0.716050    -49.529598    10.316254    -14.476727    2.896057    1.159636    -9.107714    23.169994    1.253701    -0.667084    6.259356    14.675088    -12.376402    55.626102    28.747761    17.854326    -4.672045    -15.304529    29.881042    -24.673941    -13.925822    -0.810698    14.065759    -17.582989    0.506793    0.842620    28.297691    10.074593    -10.783380    -9.949910    -17.676167    -0.609639    -4.425355    0.681389    -15.430882    -26.525715    -2.302408    10.818429    27.169825    -7.074571    21.262026    11.358265    -2.124657    -1.088811    -5.356395    1.186744    
-11.238500    84.191574    99.293991    4.934002    -11.041284    170.324295    -0.213192    -6.640376    -2.010195    6.954605    -6.060763    -1.629177    2.624810    3.466885    -10.085046    11.470499    -9.742215    -8.232348    6.762974    8.442253    -0.887943    -48.782337    10.823569    -14.936624    2.671033    1.140362    -8.997795    22.840582    1.237908    -0.557800    6.273604    14.790163    -12.274230    55.766117    29.336578    17.888645    -4.526249    -15.253860    28.887381    -24.179607    -13.935834    -0.912230    14.143461    -17.026340    0.393700    0.445797    27.732647    11.112139    -10.687114    -9.943615    -17.337017    -0.746361    -4.375313    0.834119    -15.866549    -29.027767    -2.873270    11.541712    29.770342    -7.186915    22.177525    12.687536    -2.312243    -0.881817    -5.244235    0.960972    
-11.617208    84.363136    99.480461    4.968317    -11.200359    168.754547    -0.104559    -6.447294    -2.065210    6.959692    -6.037418    -1.691863    2.769734    3.528350    -9.875724    11.227430    -9.414586    -8.115164    6.745413    8.260419    -1.058202    -48.021042    11.310174    -15.396960    2.493564    1.119855    -8.972654    22.511820    1.226282    -0.448681    6.273851    14.908204    -12.180712    55.916306    29.850697    17.874470    -4.359208    -15.143154    27.968985    -23.646574    -13.888237    -1.003111    14.230140    -16.453293    0.258184    0.057693    27.128630    12.152428    -10.577370    -9.919268    -16.981388    -0.879295    -4.317024    0.982571    -16.290659    -31.596159    -3.552841    12.272802    32.475437    -7.307423    23.050863    13.875298    -2.589852    -0.634910    -5.047624    0.691699    
-11.979630    84.538055    99.663277    5.015342    -11.357192    167.235718    0.000550    -6.263115    -2.117616    6.977462    -6.008858    -1.750992    2.907478    3.578402    -9.617509    10.994826    -9.070634    -7.944125    6.727600    8.074833    -1.225548    -47.266567    11.760795    -15.855144    2.378268    1.092023    -9.033975    22.204433    1.212275    -0.345064    6.264968    15.025593    -12.101298    56.072235    30.277935    17.812334    -4.170348    -14.981304    27.134304    -23.095835    -13.791558    -1.083028    14.325069    -15.882632    0.125990    -0.295681    26.503677    13.139658    -10.452909    -9.877265    -16.616047    -1.001708    -4.251671    1.119218    -16.700798    -34.165306    -4.325955    12.999951    35.221550    -7.449310    23.823748    14.877578    -2.914243    -0.372919    -4.793609    0.406123    
-12.327836    84.717026    99.843201    5.078053    -11.514498    165.771851    0.106810    -6.087554    -2.171138    7.002390    -5.974562    -1.810939    3.042440    3.620272    -9.319439    10.774247    -8.715751    -7.728333    6.711858    7.886115    -1.390507    -46.520248    12.173944    -16.319902    2.332518    1.050744    -9.180333    21.932711    1.189911    -0.248779    6.252249    15.142490    -12.036582    56.231064    30.627426    17.706335    -3.958648    -14.776548    26.362963    -22.532944    -13.654241    -1.155051    14.427739    -15.318646    0.014932    -0.601796    25.862066    14.053471    -10.313867    -9.816577    -16.241343    -1.111746    -4.180366    1.241990    -17.110865    -36.738712    -5.193906    13.735014    38.015369    -7.630335    24.469028    15.699807    -3.249334    -0.113985    -4.504862    0.124084    
-12.664596    84.901031    100.021339    5.158029    -11.674803    164.363464    0.218474    -5.920146    -2.229520    7.028545    -5.933610    -1.876091    3.178452    3.656899    -8.987964    10.565870    -8.353127    -7.474648    6.700702    7.692770    -1.554371    -45.782970    12.548326    -16.796947    2.363194    0.989933    -9.412231    21.709904    1.153729    -0.161089    6.240340    15.260505    -11.986404    56.388004    30.909576    17.563234    -3.723960    -14.534483    25.632795    -21.960463    -13.482113    -1.221569    14.536449    -14.764866    -0.062937    -0.852162    25.207735    14.883666    -10.162987    -9.735497    -15.859653    -1.208672    -4.104647    1.350072    -17.540636    -39.325752    -6.160464    14.498397    40.868092    -7.871704    24.974703    16.356592    -3.571983    0.130366    -4.199744    -0.141842    
-12.987316    85.088066    100.196159    5.254521    -11.837518    163.032608    0.336594    -5.761444    -2.295421    7.051476    -5.887453    -1.949279    3.315410    3.688753    -8.633383    10.372125    -7.988597    -7.192894    6.695419    7.495960    -1.715301    -45.068558    12.877799    -17.283117    2.476139    0.904817    -9.728440    21.553289    1.099840    -0.082950    6.231562    15.379193    -11.951260    56.537140    31.131701    17.392910    -3.471467    -14.261977    24.932938    -21.388454    -13.280952    -1.282547    14.647369    -14.234128    -0.099420    -1.038600    24.556406    15.614993    -10.007028    -9.635002    -15.481771    -1.291088    -4.026292    1.441909    -18.010151    -41.895752    -7.213232    15.313559    43.745155    -8.199323    25.332388    16.853662    -3.866024    0.350566    -3.897049    -0.381263    
-13.295410    85.276527    100.366951    5.365890    -12.001605    161.790527    0.460562    -5.610213    -2.371046    7.069762    -5.837796    -2.032675    3.451244    3.717438    -8.264252    10.194340    -7.626312    -6.891209    6.695533    7.295860    -1.873320    -44.386131    13.160899    -17.774504    2.672825    0.791623    -10.126864    21.475525    1.026022    -0.013625    6.226001    15.498932    -11.930663    56.673450    31.304802    17.206686    -3.206668    -13.963523    24.248568    -20.823097    -13.054537    -1.337038    14.757576    -13.734994    -0.092788    -1.161193    23.921047    16.245155    -9.852324    -9.518476    -15.116337    -1.360151    -3.944862    1.518799    -18.544893    -44.431164    -8.342995    16.218674    46.623425    -8.644123    25.548460    17.204212    -4.127818    0.543113    -3.608103    -0.590422    
